<svg version="1" xmlns="http://www.w3.org/2000/svg" width="682.667" height="682.667" viewBox="0 0 512.000000 512.000000"><path d="M53.2 43.7c-12.1 2.8-24.4 13.7-29.3 26l-2.4 5.8-.3 178c-.3 198.9-.8 184.6 6.8 196.3 6.6 10.3 16.4 16.9 28.4 19.1 8.4 1.5 390.8 1.5 399.2 0 12-2.2 23-9.8 29.1-20 6.7-11.2 6.3 1 6.3-193.4 0-159-.2-176.7-1.6-181.6-3.4-11.3-8.8-18.6-18.7-25-11.4-7.4 3.1-6.9-215.4-6.8-169.5.1-196.6.3-202.1 1.6zm84.8 96.5c27.2 15.7 50.3 28.9 51.3 29.4 1.4.8-7.5 6.3-46 28.4-26.2 15.1-49.8 28.7-52.5 30.3L86 231v-22.8l30.6-17.8c16.8-9.8 31.2-18.2 32-18.8 1.2-.9-4.9-4.9-30.3-19.7l-31.8-18.5-.3-11.3c-.2-8.9 0-11.2 1-10.8.7.2 23.6 13.3 50.8 28.9zM298 224v10H192v-20h106v10z"/></svg>