<?xml version="1.0" encoding="UTF-8"?>
<svg width="768" height="432" version="1.1" viewBox="0 0 203.2 114.3" xmlns="http://www.w3.org/2000/svg" xmlns:cc="http://creativecommons.org/ns#" xmlns:dc="http://purl.org/dc/elements/1.1/" xmlns:rdf="http://www.w3.org/1999/02/22-rdf-syntax-ns#">
 <metadata>
  <rdf:RDF>
   <cc:Work rdf:about="">
    <dc:format>image/svg+xml</dc:format>
    <dc:type rdf:resource="http://purl.org/dc/dcmitype/StillImage"/>
    <dc:title/>
   </cc:Work>
  </rdf:RDF>
 </metadata>
 <g transform="translate(0 -182.7)">
  <rect y="182.7" width="203.2" height="114.3" fill="#3498db"/>
  <path d="m30.355 211.2v4.0088h-3.2583v35.718h2.4438v1.6838h1.2468v2.2799h2.7691v1.1922h0.92383v3.9637h3.5267v3.529h4.0159v3.5125h39.304v-3.9922h3.6858v-3.2251h3.8378v-3.6834h0.92146v-1.5366h2.458v-1.9949h1.2278v-1.5365h2.61v-17.885h3.3011v-3.7618h6.9062v3.7618h3.3011v17.885h2.61v1.5365h1.2278v1.9949h2.458v1.5366h0.92142v3.6834h3.8378v3.2251h3.6858v3.9922h39.304v-3.5125h4.0159v-3.529h3.5267v-3.9637h0.92383v-1.1922h2.7691v-2.2799h1.2468v-1.6838h2.4438v-35.718h-3.2583v-4.0088h-54.658v3.6858h-7.2173v3.8378h-3.8378v3.9162h-13.508v-3.9162h-3.8378v-3.8378h-7.2173v-3.6858zm9.5518 7.5236h45.106v3.3771h5.5263v25.948h-1.2278v1.5366h-3.6834v3.8378h-3.6858v2.3036h-4.2985v4.453h-33.989v-3.4436h-2.4984v-1.3038h-1.1399v-2.116h-3.7998v-3.909h-2.1706v-1.4107h-1.4107v-21.984h3.8521v-3.7998h3.4198zm80.724 0h45.106v3.4887h3.4199v3.7998h3.852v21.984h-1.4107v1.4107h-2.1706v3.909h-3.7998v2.116h-1.1399v1.3038h-2.4984v3.4436h-33.989v-4.453h-4.2985v-2.3036h-3.6858v-3.8378h-3.6834v-1.5366h-1.2278v-25.948h5.5263z" fill="#fff"/>
  <g transform="translate(47.89 41.01)">
   <path transform="matrix(.26458 0 0 .26458 0 182.7)" d="m0 0v10h100v-10zm10 10.008v10h10v10h10v10h10v10h5v10h10v-10h5v-10h10v-10h10v-10h10v-10zm30 50.016v10h-10v10h-10v10h-10v10h80v-10h-10v-10h-10v-10h-10v-10zm-40 40.008v10h100v-10z" fill="#bdc3c7"/>
   <path transform="matrix(.26458 0 0 .26458 0 182.7)" d="m6.1016-1.0723v10h87.857v-10zm8.7871 10.008v10h8.7852v10h8.7852v10h8.7871v10h4.3027v11.914h-4.2891v10h-8.7871v10h-8.7852v10h-8.7852v10h70.285v-10h-8.7852v-10h-8.7871v-10h-8.7852v-10h-4.3477v-11.914h4.334v-10h8.7852v-10h8.7871v-10h8.7852v-10zm-8.7734 91.922v10h87.857v-10z" fill="#fff"/>
   <rect y="211.81" width="26.458" height="1.3229" ry="5.6843e-14" fill="#2c3e50"/>
   <rect x="-9.6912e-7" y="181.38" width="26.458" height="1.3229" ry="5.6843e-14" fill="#2c3e50"/>
  </g>
  <g transform="translate(132.56 41.8)">
   <path transform="matrix(.26458 0 0 .26458 0 182.7)" d="m0 0v10h100v-10zm10 10.008v10h10v10h10v10h10v10h5v10h10v-10h5v-10h10v-10h10v-10h10v-10zm30 50.016v10h-10v10h-10v10h-10v10h80v-10h-10v-10h-10v-10h-10v-10zm-40 40.008v10h100v-10z" fill="#bdc3c7"/>
   <path transform="matrix(.26458 0 0 .26458 0 182.7)" d="m6.1016-1.0723v10h87.857v-10zm8.7871 10.008v10h8.7852v10h8.7852v10h8.7871v10h4.3027v11.914h-4.2891v10h-8.7871v10h-8.7852v10h-8.7852v10h70.285v-10h-8.7852v-10h-8.7871v-10h-8.7852v-10h-4.3477v-11.914h4.334v-10h8.7852v-10h8.7871v-10h8.7852v-10zm-8.7734 91.922v10h87.857v-10z" fill="#fff"/>
   <rect y="211.81" width="26.458" height="1.3229" ry="5.6843e-14" fill="#2c3e50"/>
   <rect x="-9.6912e-7" y="181.38" width="26.458" height="1.3229" ry="5.6843e-14" fill="#2c3e50"/>
  </g>
 </g>
</svg>
